<?xml version="1.0" encoding="UTF-8"?>
<svg xmlns="http://www.w3.org/2000/svg" xmlns:xlink="http://www.w3.org/1999/xlink" width="80px" height="113px" viewBox="0 0 80 113" version="1.1">
<g id="surface1">
<path style=" stroke:none;fill-rule:evenodd;fill:rgb(90.196078%,90.196078%,90.196078%);fill-opacity:1;" d="M 73.449219 58.636719 L 5.503906 58.636719 L 5.503906 4.058594 L 73.449219 4.058594 Z M 73.449219 58.636719 "/>
<path style=" stroke:none;fill-rule:evenodd;fill:rgb(80%,80%,80%);fill-opacity:1;" d="M 56.566406 14.300781 C 56.429688 13.777344 56.152344 12.777344 55.824219 12 C 55.496094 11.222656 55.121094 10.671875 54.640625 10.175781 C 54.160156 9.683594 53.582031 9.246094 52.953125 8.761719 C 52.320312 8.277344 51.640625 7.753906 50.964844 7.363281 C 50.296875 6.980469 49.632812 6.738281 49.46875 6.738281 C 49.304688 6.738281 49.640625 6.980469 49.859375 7.199219 C 50.078125 7.425781 50.179688 7.625 49.820312 7.609375 C 49.464844 7.59375 48.648438 7.355469 48.101562 7.238281 C 47.554688 7.121094 47.277344 7.121094 47.007812 7.261719 C 46.734375 7.398438 46.46875 7.675781 46.128906 7.964844 C 45.792969 8.253906 45.386719 8.554688 45.203125 8.589844 C 45.011719 8.625 45.039062 8.386719 45.1875 8.0625 C 45.339844 7.734375 45.617188 7.316406 45.546875 7.292969 C 45.484375 7.273438 45.074219 7.648438 44.773438 8.003906 C 44.480469 8.355469 44.304688 8.679688 44.222656 8.691406 C 44.140625 8.699219 44.148438 8.386719 44.234375 8.066406 C 44.320312 7.742188 44.488281 7.40625 44.347656 7.519531 C 44.203125 7.636719 43.75 8.195312 43.535156 8.710938 C 43.324219 9.230469 43.351562 9.699219 43.277344 9.8125 C 43.207031 9.925781 43.039062 9.683594 42.992188 9.257812 C 42.945312 8.832031 43.023438 8.230469 42.882812 8.289062 C 42.746094 8.347656 42.390625 9.070312 42.132812 9.652344 C 41.867188 10.234375 41.699219 10.679688 41.632812 11.175781 C 41.558594 11.667969 41.585938 12.21875 41.71875 12.71875 C 41.851562 13.222656 42.097656 13.683594 42.207031 14.113281 C 42.3125 14.539062 42.292969 14.933594 42.285156 15.429688 C 42.273438 15.925781 42.285156 16.523438 42.4375 17.070312 C 42.59375 17.617188 42.894531 18.125 43.097656 18.476562 C 43.308594 18.835938 43.414062 19.046875 43.453125 19.167969 C 43.492188 19.285156 43.457031 19.316406 43.300781 19.390625 C 43.148438 19.472656 42.871094 19.597656 42.601562 19.730469 C 42.335938 19.863281 42.082031 20.007812 41.96875 20.125 C 41.855469 20.246094 41.890625 20.335938 41.929688 20.445312 C 41.972656 20.554688 42.015625 20.6875 42.085938 20.765625 C 42.152344 20.839844 42.25 20.867188 42.335938 20.914062 C 42.425781 20.964844 42.507812 21.035156 42.660156 21.269531 C 42.8125 21.5 43.039062 21.894531 43.242188 22.191406 C 43.453125 22.488281 43.648438 22.691406 43.84375 22.804688 C 44.042969 22.917969 44.253906 22.941406 44.414062 22.953125 C 44.578125 22.960938 44.699219 22.953125 44.964844 23.414062 C 45.230469 23.875 45.648438 24.808594 46.148438 25.589844 C 46.644531 26.375 47.234375 27.015625 47.640625 27.4375 C 48.046875 27.863281 48.277344 28.074219 48.449219 28.347656 C 48.621094 28.625 48.738281 28.972656 48.9375 29.1875 C 49.132812 29.40625 49.40625 29.496094 49.660156 29.53125 C 49.914062 29.566406 50.140625 29.542969 50.046875 29.6875 C 49.957031 29.835938 49.546875 30.152344 49.148438 30.546875 C 48.753906 30.941406 48.375 31.410156 48.113281 32.09375 C 47.847656 32.769531 47.695312 33.660156 47.679688 34.460938 C 47.664062 35.253906 47.78125 35.960938 47.796875 36.730469 C 47.8125 37.503906 47.726562 38.34375 47.710938 39.089844 C 47.695312 39.835938 47.746094 40.492188 47.664062 41.0625 C 47.578125 41.632812 47.359375 42.121094 47.109375 42.363281 C 46.863281 42.609375 46.585938 42.609375 46.300781 42.671875 C 46.015625 42.742188 45.71875 42.875 45.476562 43.042969 C 45.230469 43.210938 45.042969 43.410156 44.878906 43.429688 C 44.714844 43.445312 44.578125 43.277344 44.34375 43.304688 C 44.109375 43.328125 43.773438 43.542969 43.53125 43.691406 C 43.285156 43.839844 43.132812 43.914062 42.949219 43.90625 C 42.761719 43.898438 42.546875 43.808594 42.15625 43.835938 C 41.773438 43.863281 41.21875 44.015625 40.738281 44.128906 C 40.253906 44.242188 39.839844 44.316406 39.484375 44.351562 C 39.128906 44.386719 38.824219 44.378906 38.644531 44.414062 C 38.460938 44.441406 38.40625 44.519531 38.289062 44.515625 C 38.175781 44.511719 38.007812 44.425781 37.753906 44.425781 C 37.5 44.421875 37.152344 44.496094 36.550781 44.382812 C 35.945312 44.269531 35.078125 43.96875 34.503906 43.761719 C 33.929688 43.554688 33.640625 43.445312 33.414062 43.441406 C 33.1875 43.4375 33.019531 43.535156 32.84375 43.585938 C 32.667969 43.640625 32.480469 43.640625 32.320312 43.714844 C 32.15625 43.789062 32.011719 43.941406 31.546875 44.164062 C 31.078125 44.386719 30.289062 44.679688 29.855469 44.921875 C 29.425781 45.167969 29.347656 45.359375 29.210938 45.734375 C 29.070312 46.105469 28.867188 46.65625 28.769531 47.164062 C 28.75 47.265625 28.730469 47.371094 28.71875 47.464844 L 27.335938 47.371094 L 22.09375 31.609375 C 21.9375 31.140625 21.609375 30.890625 21.136719 30.855469 L 7.425781 31.15625 C 6.835938 31.207031 6.585938 31.585938 6.757812 32.175781 L 11.738281 48.148438 L 5.515625 48.148438 L 5.515625 58.636719 L 73.386719 58.636719 C 73.453125 58.277344 73.441406 57.625 73.433594 56.226562 C 73.425781 54.386719 73.425781 51.265625 73.390625 48.539062 C 73.359375 45.8125 73.292969 43.480469 73.097656 41.472656 C 72.90625 39.46875 72.585938 37.789062 72.015625 36.265625 C 71.445312 34.734375 70.621094 33.359375 69.710938 31.988281 C 68.804688 30.625 67.8125 29.265625 66.730469 28.222656 C 65.644531 27.183594 64.472656 26.460938 63.589844 26.066406 C 62.707031 25.671875 62.117188 25.601562 61.714844 25.460938 C 61.3125 25.316406 61.09375 25.101562 60.75 24.800781 C 60.402344 24.496094 59.933594 24.109375 59.59375 23.917969 C 59.246094 23.726562 59.027344 23.726562 58.84375 23.75 C 58.664062 23.773438 58.515625 23.816406 58.371094 23.664062 C 58.222656 23.511719 58.074219 23.160156 57.914062 22.59375 C 57.75 22.027344 57.566406 21.246094 57.472656 20.808594 C 57.386719 20.375 57.386719 20.277344 57.464844 20.152344 C 57.546875 20.027344 57.707031 19.867188 57.839844 19.589844 C 57.976562 19.3125 58.089844 18.914062 58.101562 18.464844 C 58.117188 18.011719 58.027344 17.507812 57.894531 16.921875 C 57.757812 16.335938 57.582031 15.667969 57.40625 15.3125 C 57.234375 14.949219 57.070312 14.902344 56.957031 14.886719 C 56.84375 14.871094 56.78125 14.894531 56.746094 14.882812 C 56.710938 14.867188 56.707031 14.820312 56.566406 14.300781 Z M 56.566406 14.300781 "/>
<path style=" stroke:none;fill-rule:evenodd;fill:rgb(7.843137%,7.45098%,7.45098%);fill-opacity:1;" d="M 58.542969 23.765625 C 58.527344 23.902344 58.574219 23.984375 58.636719 24.058594 C 58.714844 24.152344 58.8125 24.222656 58.800781 24.371094 C 58.785156 24.519531 58.664062 24.75 58.257812 25.308594 C 57.855469 25.875 57.164062 26.769531 56.597656 27.421875 C 56.03125 28.078125 55.589844 28.496094 55.109375 28.996094 C 54.628906 29.496094 54.113281 30.082031 53.738281 30.542969 C 53.363281 31 53.128906 31.339844 52.992188 31.515625 C 52.859375 31.691406 52.820312 31.710938 52.796875 31.714844 C 52.765625 31.714844 52.738281 31.699219 52.617188 31.53125 C 52.492188 31.363281 52.269531 31.039062 52.027344 30.722656 C 51.78125 30.410156 51.515625 30.101562 51.332031 29.890625 C 51.148438 29.675781 51.046875 29.554688 50.929688 29.5 C 50.808594 29.449219 50.679688 29.464844 50.53125 29.492188 C 50.367188 29.523438 50.261719 29.542969 50.164062 29.574219 C 50.117188 29.589844 50.082031 29.632812 50.046875 29.6875 C 49.957031 29.835938 49.546875 30.152344 49.148438 30.546875 C 48.753906 30.941406 48.375 31.410156 48.113281 32.09375 C 47.847656 32.769531 47.695312 33.660156 47.679688 34.460938 C 47.664062 35.253906 47.78125 35.960938 47.796875 36.730469 C 47.8125 37.503906 47.726562 38.34375 47.710938 39.089844 C 47.695312 39.835938 47.746094 40.492188 47.664062 41.0625 C 47.578125 41.632812 47.359375 42.121094 47.109375 42.363281 C 46.863281 42.609375 46.585938 42.609375 46.300781 42.671875 C 46.015625 42.742188 45.71875 42.875 45.476562 43.042969 C 45.230469 43.210938 45.042969 43.410156 44.878906 43.429688 C 44.714844 43.445312 44.578125 43.277344 44.34375 43.304688 C 44.109375 43.328125 43.773438 43.542969 43.53125 43.691406 C 43.285156 43.839844 43.132812 43.914062 42.949219 43.90625 C 42.761719 43.898438 42.546875 43.808594 42.15625 43.835938 C 41.773438 43.863281 41.21875 44.015625 40.738281 44.128906 C 40.253906 44.242188 39.839844 44.316406 39.484375 44.351562 C 39.128906 44.386719 38.824219 44.378906 38.644531 44.414062 C 38.546875 44.425781 38.484375 44.457031 38.429688 44.484375 C 38.429688 44.488281 38.429688 44.492188 38.429688 44.492188 C 38.453125 44.507812 38.617188 44.5 38.835938 44.53125 C 39.050781 44.5625 39.324219 44.632812 39.53125 44.75 C 39.746094 44.871094 39.902344 45.035156 40.011719 45.265625 C 40.128906 45.492188 40.195312 45.785156 40.210938 46.042969 C 40.226562 46.300781 40.183594 46.523438 40.082031 46.769531 C 39.972656 47.011719 39.808594 47.269531 39.648438 47.425781 C 39.488281 47.582031 39.34375 47.636719 39.195312 47.652344 C 39.046875 47.667969 38.898438 47.640625 38.785156 47.621094 C 38.675781 47.601562 38.597656 47.585938 38.539062 47.59375 C 38.480469 47.605469 38.441406 47.644531 38.453125 47.714844 C 38.460938 47.789062 38.519531 47.894531 38.664062 47.988281 C 38.808594 48.082031 39.039062 48.15625 39.386719 48.210938 C 39.738281 48.265625 40.222656 48.277344 40.542969 48.296875 C 40.867188 48.320312 41.203125 48.347656 41.46875 48.367188 C 41.734375 48.382812 42.011719 48.421875 42.554688 48.460938 C 43.089844 48.503906 43.894531 48.5625 44.59375 48.566406 C 45.289062 48.570312 45.875 48.496094 46.433594 48.414062 C 46.988281 48.328125 47.519531 48.230469 47.855469 48.261719 C 48.1875 48.289062 48.328125 48.445312 48.449219 48.546875 C 48.5625 48.644531 48.648438 48.695312 48.734375 48.691406 C 48.816406 48.691406 48.898438 48.636719 48.957031 48.578125 C 49.019531 48.511719 49.0625 48.433594 49.097656 48.597656 C 49.132812 48.761719 49.164062 49.167969 49.210938 49.457031 C 49.253906 49.746094 49.320312 49.921875 49.492188 50.195312 C 49.667969 50.464844 49.953125 50.828125 50.164062 51.085938 C 50.367188 51.339844 50.496094 51.488281 50.429688 51.507812 C 50.355469 51.527344 50.082031 51.414062 49.804688 51.40625 C 49.527344 51.398438 49.242188 51.492188 48.9375 51.535156 C 48.632812 51.574219 48.316406 51.566406 48.050781 51.480469 C 47.785156 51.398438 47.574219 51.234375 47.375 51.128906 C 47.167969 51.03125 46.96875 50.992188 46.335938 50.980469 C 45.703125 50.96875 44.636719 50.988281 43.757812 50.96875 C 42.882812 50.953125 42.1875 50.894531 41.785156 50.863281 C 41.382812 50.828125 41.273438 50.8125 40.996094 50.882812 C 40.714844 50.949219 40.261719 51.089844 39.878906 51.34375 C 39.503906 51.601562 39.199219 51.972656 38.992188 52.421875 C 38.78125 52.871094 38.664062 53.394531 38.679688 53.917969 C 38.699219 54.4375 38.847656 54.949219 39.003906 55.34375 C 39.15625 55.734375 39.316406 56.007812 39.4375 56.15625 C 39.476562 56.203125 39.507812 56.234375 39.535156 56.296875 C 39.601562 56.3125 39.664062 56.332031 39.730469 56.355469 C 40.113281 56.484375 40.511719 56.722656 40.734375 56.914062 C 40.949219 57.109375 40.984375 57.257812 40.941406 57.59375 C 40.902344 57.894531 40.804688 58.339844 40.859375 58.636719 L 73.386719 58.636719 C 73.453125 58.277344 73.441406 57.625 73.433594 56.226562 C 73.425781 54.386719 73.425781 51.265625 73.390625 48.539062 C 73.359375 45.8125 73.292969 43.480469 73.097656 41.472656 C 72.90625 39.46875 72.585938 37.789062 72.015625 36.265625 C 71.445312 34.734375 70.621094 33.359375 69.710938 31.988281 C 68.804688 30.625 67.8125 29.265625 66.730469 28.222656 C 65.644531 27.183594 64.472656 26.460938 63.589844 26.066406 C 62.707031 25.671875 62.117188 25.601562 61.714844 25.460938 C 61.3125 25.316406 61.09375 25.101562 60.75 24.800781 C 60.402344 24.496094 59.933594 24.109375 59.59375 23.917969 C 59.246094 23.726562 59.027344 23.726562 58.84375 23.75 C 58.734375 23.761719 58.636719 23.785156 58.542969 23.765625 Z M 58.542969 23.765625 "/>
<path style=" stroke:none;fill-rule:evenodd;fill:rgb(5.098039%,5.098039%,5.098039%);fill-opacity:1;" d="M 58.996094 31.332031 C 58.613281 32.222656 58.242188 33.179688 57.605469 34.21875 C 56.96875 35.261719 56.058594 36.386719 55.230469 37.953125 C 54.394531 39.527344 53.640625 41.539062 53.152344 43.265625 C 52.664062 44.996094 52.449219 46.4375 52.316406 47.691406 C 52.179688 48.9375 52.128906 49.996094 52.066406 50.613281 C 52.003906 51.230469 51.925781 51.40625 52.050781 51.441406 C 52.179688 51.472656 52.503906 51.367188 52.789062 51.339844 C 53.070312 51.3125 53.304688 51.375 53.601562 51.363281 C 53.898438 51.347656 54.261719 51.261719 54.636719 51.25 C 55.007812 51.242188 55.398438 51.296875 55.703125 51.453125 C 56.011719 51.609375 56.234375 51.859375 56.453125 52.371094 C 56.667969 52.882812 56.867188 53.65625 56.910156 53.582031 C 56.953125 53.503906 56.832031 52.582031 56.644531 51.960938 C 56.457031 51.339844 56.195312 51.019531 56.148438 50.84375 C 56.101562 50.667969 56.269531 50.636719 56.554688 50.839844 C 56.839844 51.046875 57.246094 51.492188 57.574219 51.816406 C 57.902344 52.140625 58.152344 52.335938 58.507812 52.851562 C 58.855469 53.359375 59.308594 54.1875 59.617188 54.957031 C 59.921875 55.734375 60.082031 56.464844 60.132812 56.359375 C 60.1875 56.25 60.125 55.300781 59.699219 54.324219 C 59.269531 53.34375 58.472656 52.335938 57.914062 51.726562 C 57.363281 51.113281 57.050781 50.894531 56.976562 50.660156 C 56.898438 50.425781 57.058594 50.175781 57.429688 50.042969 C 57.796875 49.914062 58.378906 49.90625 59.019531 50.121094 C 59.664062 50.34375 60.371094 50.789062 60.949219 51.105469 C 61.527344 51.429688 61.980469 51.632812 62.042969 51.449219 C 62.097656 51.261719 61.765625 50.691406 61.078125 50.257812 C 60.394531 49.820312 59.363281 49.519531 58.589844 49.394531 C 57.816406 49.265625 57.300781 49.320312 57.175781 49.015625 C 57.050781 48.714844 57.3125 48.058594 57.585938 47.582031 C 57.859375 47.109375 58.144531 46.816406 58.226562 46.296875 C 58.3125 45.773438 58.195312 45.027344 58.429688 44.339844 C 58.667969 43.652344 59.253906 43.023438 59.804688 42.511719 C 60.363281 42 60.882812 41.605469 60.929688 41.503906 C 60.976562 41.40625 60.542969 41.597656 60.574219 41.476562 C 60.605469 41.363281 61.09375 40.933594 61.789062 40.546875 C 62.488281 40.152344 63.394531 39.800781 64.417969 39.59375 C 65.445312 39.386719 66.585938 39.332031 66.757812 39.222656 C 66.929688 39.113281 66.132812 38.953125 65.332031 38.980469 C 64.53125 39.011719 63.722656 39.230469 62.820312 39.667969 C 61.917969 40.105469 60.914062 40.757812 60.191406 41.339844 C 59.460938 41.921875 59.007812 42.4375 58.765625 42.175781 C 58.523438 41.914062 58.488281 40.882812 58.453125 39.851562 C 58.421875 38.816406 58.386719 37.785156 58.480469 36.734375 C 58.570312 35.679688 58.792969 34.609375 58.988281 33.554688 C 59.183594 32.5 59.363281 31.46875 59.550781 30.675781 C 59.742188 29.882812 59.941406 29.328125 59.847656 29.464844 C 59.757812 29.601562 59.371094 30.4375 58.996094 31.332031 Z M 58.996094 31.332031 "/>
<path style=" stroke:none;fill-rule:evenodd;fill:rgb(100%,100%,100%);fill-opacity:1;" d="M 58.539062 23.8125 C 58.578125 23.878906 58.609375 23.960938 58.683594 24 C 58.757812 24.042969 58.882812 24.03125 58.960938 24.066406 C 59.03125 24.105469 59.058594 24.191406 58.859375 24.722656 C 58.660156 25.253906 58.234375 26.226562 57.867188 27.074219 C 57.496094 27.925781 57.179688 28.652344 56.804688 29.644531 C 56.421875 30.636719 55.976562 31.894531 55.53125 33.089844 C 55.085938 34.285156 54.640625 35.410156 54.242188 36.53125 C 53.84375 37.648438 53.488281 38.757812 53.300781 39.332031 C 53.117188 39.910156 53.097656 39.957031 52.960938 40.554688 C 52.824219 41.152344 52.578125 42.300781 52.382812 43.839844 C 52.191406 45.382812 52.042969 47.3125 51.988281 48.625 C 51.929688 49.941406 51.957031 50.648438 51.984375 51.011719 C 52.011719 51.378906 52.03125 51.40625 51.921875 51.476562 C 51.820312 51.546875 51.582031 51.652344 51.378906 51.695312 C 51.171875 51.734375 50.992188 51.707031 50.851562 51.347656 C 50.707031 50.984375 50.601562 50.289062 50.476562 49.417969 C 50.347656 48.546875 50.203125 47.496094 50.113281 46.695312 C 50.023438 45.894531 49.980469 45.335938 49.964844 44.457031 C 49.953125 43.574219 49.96875 42.367188 50.023438 41.507812 C 50.070312 40.648438 50.15625 40.132812 50.046875 39.601562 C 49.945312 39.070312 49.652344 38.515625 49.671875 37.8125 C 49.695312 37.109375 50.027344 36.253906 50.335938 35.484375 C 50.644531 34.714844 50.921875 34.039062 51.128906 33.515625 C 51.339844 32.996094 51.480469 32.632812 51.574219 32.300781 C 51.667969 31.96875 51.710938 31.671875 51.699219 31.316406 C 51.691406 30.996094 51.640625 30.632812 51.589844 30.1875 C 51.726562 30.351562 51.882812 30.535156 52.027344 30.722656 C 52.269531 31.039062 52.492188 31.363281 52.617188 31.53125 C 52.738281 31.699219 52.765625 31.714844 52.796875 31.714844 C 52.820312 31.710938 52.859375 31.691406 52.992188 31.515625 C 53.128906 31.339844 53.363281 31 53.738281 30.542969 C 54.113281 30.082031 54.628906 29.496094 55.109375 28.996094 C 55.589844 28.496094 56.03125 28.078125 56.597656 27.421875 C 57.164062 26.769531 57.855469 25.875 58.257812 25.308594 C 58.664062 24.75 58.785156 24.519531 58.800781 24.371094 C 58.8125 24.222656 58.714844 24.152344 58.636719 24.058594 C 58.582031 23.996094 58.535156 23.921875 58.539062 23.8125 Z M 58.539062 23.8125 "/>
<path style=" stroke:none;fill-rule:evenodd;fill:rgb(48.627451%,0%,8.235294%);fill-opacity:1;" d="M 53.230469 39.679688 C 53.132812 39.976562 53.066406 40.257812 52.996094 40.5625 C 52.753906 41.648438 52.5625 42.742188 52.421875 43.84375 C 52.34375 44.472656 52.277344 45.101562 52.21875 45.730469 C 52.136719 46.691406 52.066406 47.664062 52.027344 48.628906 C 51.992188 49.414062 51.96875 50.226562 52.023438 51.007812 C 52.027344 51.066406 52.03125 51.117188 52.035156 51.171875 C 52.042969 51.25 52.054688 51.324219 52.035156 51.402344 C 52.023438 51.453125 51.988281 51.484375 51.945312 51.511719 C 51.796875 51.605469 51.5625 51.695312 51.386719 51.730469 C 51.074219 51.792969 50.929688 51.648438 50.816406 51.363281 C 50.722656 51.121094 50.664062 50.832031 50.621094 50.582031 C 50.546875 50.199219 50.488281 49.808594 50.4375 49.421875 C 50.308594 48.515625 50.179688 47.609375 50.074219 46.699219 C 50.027344 46.28125 49.984375 45.863281 49.960938 45.4375 C 49.980469 44.898438 49.996094 44.363281 50.019531 43.828125 C 50.035156 43.324219 50.066406 42.816406 50.101562 42.316406 C 50.144531 41.730469 50.191406 41.144531 50.261719 40.5625 C 50.320312 40.066406 50.394531 39.578125 50.511719 39.09375 C 50.617188 38.667969 50.757812 38.25 50.859375 37.824219 C 50.902344 37.644531 50.9375 37.464844 50.972656 37.285156 C 51 37.148438 51.023438 37.003906 51.0625 36.863281 C 51.089844 36.773438 51.121094 36.695312 51.160156 36.605469 C 51.171875 36.578125 51.203125 36.515625 51.203125 36.484375 C 51.203125 36.441406 51.121094 36.378906 51.101562 36.328125 C 51.054688 36.230469 51.132812 35.789062 51.144531 35.679688 C 51.222656 35.089844 51.28125 34.464844 51.410156 33.882812 C 51.445312 33.710938 51.492188 33.535156 51.566406 33.371094 C 51.597656 33.292969 51.648438 33.207031 51.675781 33.128906 C 51.722656 32.996094 51.710938 32.804688 51.726562 32.65625 C 51.742188 32.460938 51.796875 32.226562 51.921875 32.066406 C 52.035156 31.929688 52.214844 31.832031 52.398438 31.851562 C 52.539062 31.863281 52.679688 31.964844 52.667969 32.117188 C 52.660156 32.257812 52.542969 32.371094 52.496094 32.492188 C 52.457031 32.582031 52.503906 32.617188 52.59375 32.636719 C 52.671875 32.652344 52.761719 32.65625 52.839844 32.660156 C 52.949219 32.667969 53.058594 32.679688 53.160156 32.707031 C 53.40625 32.769531 53.667969 32.929688 53.890625 33.046875 C 54.203125 33.214844 54.527344 33.375 54.847656 33.53125 C 54.902344 33.558594 55.132812 33.648438 55.136719 33.722656 C 55.136719 33.734375 55.132812 33.746094 55.128906 33.753906 C 55.105469 33.808594 54.925781 33.921875 54.871094 33.960938 C 54.679688 34.09375 54.515625 34.234375 54.378906 34.421875 C 54.199219 34.667969 54.054688 34.976562 53.914062 35.246094 C 53.777344 35.503906 53.582031 35.828125 53.496094 36.101562 C 53.429688 36.316406 53.480469 36.480469 53.496094 36.699219 C 53.523438 37.058594 53.488281 37.460938 53.441406 37.820312 C 53.382812 38.261719 53.28125 38.695312 53.214844 39.136719 C 53.183594 39.332031 53.191406 39.460938 53.234375 39.660156 C 53.234375 39.664062 53.234375 39.671875 53.230469 39.679688 Z M 53.230469 39.679688 "/>
<path style=" stroke:none;fill-rule:evenodd;fill:rgb(83.921569%,10.588235%,18.039216%);fill-opacity:1;" d="M 53.183594 33.28125 C 53.304688 33.195312 53.484375 33.160156 53.617188 33.25 C 53.75 33.335938 53.835938 33.550781 53.722656 33.929688 C 53.605469 34.3125 53.296875 34.867188 53.097656 35.234375 C 52.894531 35.605469 52.804688 35.789062 52.867188 35.851562 C 52.933594 35.914062 53.152344 35.855469 53.144531 35.898438 C 53.136719 35.941406 52.898438 36.082031 52.679688 36.199219 C 52.464844 36.316406 52.273438 36.410156 52.339844 36.4375 C 52.402344 36.464844 52.726562 36.425781 52.917969 36.402344 C 53.109375 36.371094 53.164062 36.355469 53.308594 36.304688 C 53.449219 36.261719 53.679688 36.179688 53.667969 36.691406 C 53.65625 37.199219 53.410156 38.300781 53.089844 39.515625 C 52.769531 40.730469 52.378906 42.066406 52.121094 43.441406 C 51.867188 44.820312 51.738281 46.234375 51.640625 45.777344 C 51.546875 45.320312 51.476562 42.988281 51.441406 41.304688 C 51.414062 39.617188 51.414062 38.574219 51.484375 37.671875 C 51.5625 36.769531 51.714844 36.007812 51.96875 35.359375 C 52.222656 34.707031 52.585938 34.171875 52.796875 33.832031 C 53.007812 33.496094 53.066406 33.363281 53.183594 33.28125 Z M 53.183594 33.28125 "/>
<path style=" stroke:none;fill-rule:evenodd;fill:rgb(100%,100%,100%);fill-opacity:1;" d="M 43.789062 50.96875 C 43.640625 51.046875 43.496094 51.128906 43.347656 51.230469 C 43.027344 51.445312 42.699219 51.757812 42.394531 52.113281 C 42.085938 52.464844 41.800781 52.867188 41.609375 53.238281 C 41.417969 53.613281 41.324219 53.960938 41.242188 54.515625 C 41.167969 55.078125 41.105469 55.847656 41.0625 56.355469 C 41.027344 56.765625 41 57.011719 40.921875 57.164062 C 40.890625 57.074219 40.828125 57 40.734375 56.914062 C 40.511719 56.722656 40.113281 56.484375 39.730469 56.355469 C 39.664062 56.332031 39.601562 56.3125 39.535156 56.296875 C 39.507812 56.234375 39.476562 56.203125 39.4375 56.15625 C 39.316406 56.007812 39.15625 55.734375 39.003906 55.34375 C 38.847656 54.949219 38.699219 54.4375 38.679688 53.917969 C 38.664062 53.394531 38.78125 52.871094 38.992188 52.421875 C 39.199219 51.972656 39.503906 51.601562 39.878906 51.34375 C 40.261719 51.089844 40.714844 50.949219 40.996094 50.882812 C 41.273438 50.8125 41.382812 50.828125 41.785156 50.863281 C 42.1875 50.894531 42.882812 50.953125 43.757812 50.96875 Z M 43.789062 50.96875 "/>
<path style=" stroke:none;fill-rule:evenodd;fill:rgb(100%,100%,100%);fill-opacity:1;" d="M 40.183594 44.25 C 40.371094 44.277344 40.59375 44.285156 40.8125 44.335938 C 41.058594 44.390625 41.304688 44.484375 41.519531 44.6875 C 41.726562 44.882812 41.902344 45.179688 41.988281 45.527344 C 42.082031 45.878906 42.089844 46.277344 42.070312 46.628906 C 42.046875 46.980469 42 47.285156 41.929688 47.535156 C 41.855469 47.777344 41.753906 47.964844 41.65625 48.082031 C 41.515625 48.25 41.277344 48.308594 41.066406 48.308594 C 40.917969 48.304688 40.757812 48.304688 40.574219 48.300781 C 40.207031 48.289062 39.738281 48.265625 39.386719 48.210938 C 39.039062 48.15625 38.808594 48.082031 38.664062 47.988281 C 38.519531 47.894531 38.460938 47.789062 38.453125 47.714844 C 38.445312 47.65625 38.46875 47.621094 38.511719 47.601562 C 38.578125 47.707031 38.605469 47.785156 38.683594 47.839844 C 38.765625 47.902344 38.910156 47.933594 39.074219 47.890625 C 39.234375 47.847656 39.410156 47.734375 39.570312 47.59375 C 39.726562 47.453125 39.867188 47.285156 39.980469 47.097656 C 40.097656 46.90625 40.183594 46.6875 40.234375 46.46875 C 40.28125 46.242188 40.285156 46.015625 40.246094 45.78125 C 40.207031 45.550781 40.128906 45.316406 40.011719 45.128906 C 39.898438 44.933594 39.742188 44.789062 39.574219 44.691406 C 39.402344 44.589844 39.21875 44.542969 39.03125 44.515625 C 38.835938 44.492188 38.632812 44.492188 38.464844 44.472656 L 38.449219 44.472656 C 38.5 44.449219 38.558594 44.425781 38.644531 44.414062 C 38.824219 44.378906 39.128906 44.386719 39.484375 44.351562 C 39.695312 44.332031 39.929688 44.296875 40.183594 44.25 Z M 40.183594 44.25 "/>
<path style=" stroke:none;fill-rule:evenodd;fill:rgb(96.470588%,83.529412%,72.156863%);fill-opacity:1;" d="M 37.660156 48.214844 C 37.328125 48.371094 36.917969 48.453125 36.570312 48.398438 C 36.222656 48.34375 35.9375 48.148438 35.667969 48.101562 C 35.402344 48.050781 35.15625 48.148438 34.867188 48.179688 C 34.570312 48.207031 34.234375 48.164062 34.007812 48.058594 C 33.789062 47.957031 33.679688 47.789062 33.617188 47.625 C 33.550781 47.464844 33.523438 47.308594 33.542969 47.15625 C 33.558594 47.007812 33.621094 46.859375 33.671875 46.769531 C 33.726562 46.679688 33.777344 46.648438 33.746094 46.601562 C 33.710938 46.558594 33.59375 46.503906 33.441406 46.550781 C 33.292969 46.601562 33.105469 46.75 32.953125 46.84375 C 32.800781 46.9375 32.679688 46.96875 32.460938 47.195312 C 32.246094 47.421875 31.941406 47.839844 31.761719 48.082031 C 31.578125 48.324219 31.515625 48.386719 31.628906 48.386719 C 31.742188 48.386719 32.023438 48.324219 32.226562 48.324219 C 32.421875 48.324219 32.546875 48.386719 32.75 48.386719 C 32.957031 48.382812 33.25 48.316406 33.507812 48.324219 C 33.773438 48.335938 34.007812 48.425781 34.21875 48.542969 C 34.421875 48.660156 34.605469 48.808594 34.984375 49 C 35.359375 49.191406 35.9375 49.433594 36.355469 49.652344 C 36.769531 49.878906 37.035156 50.082031 37.300781 50.238281 C 37.566406 50.390625 37.839844 50.5 38.394531 50.589844 C 38.949219 50.675781 39.785156 50.753906 40.265625 50.800781 C 40.492188 50.820312 40.640625 50.835938 40.730469 50.953125 C 40.46875 51.03125 40.152344 51.160156 39.878906 51.34375 C 39.503906 51.601562 39.199219 51.972656 38.992188 52.421875 C 38.78125 52.871094 38.664062 53.394531 38.679688 53.917969 C 38.699219 54.4375 38.847656 54.949219 39.003906 55.34375 C 39.15625 55.734375 39.316406 56.007812 39.4375 56.15625 C 39.476562 56.203125 39.507812 56.234375 39.535156 56.296875 C 38.65625 56.039062 37.261719 54.867188 36.730469 54.90625 C 36.496094 54.921875 36.085938 54.945312 35.566406 54.863281 C 35.042969 54.785156 34.414062 54.597656 33.871094 54.378906 C 33.328125 54.164062 32.875 53.910156 32.40625 53.699219 C 31.933594 53.488281 31.449219 53.324219 31.007812 53.125 C 30.566406 52.929688 30.171875 52.703125 29.769531 52.453125 C 29.375 52.207031 28.972656 51.9375 28.675781 51.808594 C 28.375 51.679688 28.183594 51.6875 28.058594 51.804688 C 27.925781 51.921875 27.871094 52.144531 27.769531 52.425781 C 27.667969 52.703125 27.527344 53.03125 27.328125 53.167969 C 27.132812 53.308594 26.878906 53.253906 26.734375 53.140625 C 26.59375 53.023438 26.558594 52.835938 26.507812 52.722656 C 26.449219 52.609375 26.375 52.570312 26.351562 52.441406 C 26.324219 52.316406 26.351562 52.105469 26.394531 51.867188 C 26.441406 51.628906 26.511719 51.359375 26.667969 51.039062 C 26.820312 50.722656 27.0625 50.355469 27.289062 50.011719 C 27.507812 49.671875 27.710938 49.359375 27.933594 49.171875 C 28.15625 48.984375 28.398438 48.917969 28.527344 48.839844 C 28.652344 48.757812 28.660156 48.664062 28.664062 48.394531 C 28.667969 48.121094 28.667969 47.667969 28.769531 47.164062 C 28.867188 46.65625 29.070312 46.105469 29.210938 45.734375 C 29.347656 45.359375 29.425781 45.167969 29.855469 44.921875 C 30.289062 44.679688 31.078125 44.386719 31.546875 44.164062 C 32.011719 43.941406 32.15625 43.789062 32.320312 43.714844 C 32.480469 43.640625 32.667969 43.640625 32.84375 43.585938 C 33.019531 43.535156 33.1875 43.4375 33.414062 43.441406 C 33.640625 43.445312 33.929688 43.554688 34.503906 43.761719 C 35.078125 43.96875 35.945312 44.269531 36.550781 44.382812 C 37.152344 44.496094 37.5 44.421875 37.753906 44.425781 C 38.007812 44.425781 38.175781 44.511719 38.289062 44.515625 C 38.351562 44.519531 38.398438 44.496094 38.449219 44.472656 L 38.464844 44.472656 C 38.632812 44.492188 38.835938 44.492188 39.03125 44.515625 C 39.21875 44.542969 39.402344 44.589844 39.574219 44.691406 C 39.742188 44.789062 39.898438 44.933594 40.011719 45.128906 C 40.128906 45.316406 40.207031 45.550781 40.246094 45.78125 C 40.285156 46.015625 40.28125 46.242188 40.234375 46.46875 C 40.183594 46.6875 40.097656 46.90625 39.980469 47.097656 C 39.867188 47.285156 39.726562 47.453125 39.570312 47.59375 C 39.410156 47.734375 39.234375 47.847656 39.074219 47.890625 C 38.910156 47.933594 38.765625 47.902344 38.683594 47.839844 C 38.613281 47.792969 38.582031 47.730469 38.539062 47.644531 C 38.527344 47.625 38.519531 47.605469 38.511719 47.597656 C 38.492188 47.566406 38.476562 47.609375 38.445312 47.667969 C 38.316406 47.933594 37.914062 48.097656 37.660156 48.214844 Z M 37.660156 48.214844 "/>
<path style=" stroke:none;fill-rule:evenodd;fill:rgb(96.470588%,83.529412%,72.156863%);fill-opacity:1;" d="M 46.148438 25.589844 C 46.644531 26.375 47.234375 27.015625 47.640625 27.4375 C 48.046875 27.863281 48.277344 28.074219 48.449219 28.347656 C 48.621094 28.625 48.738281 28.972656 48.9375 29.1875 C 49.132812 29.40625 49.40625 29.496094 49.660156 29.53125 C 49.84375 29.558594 50.011719 29.550781 50.054688 29.597656 C 50.332031 29.53125 50.4375 29.511719 50.53125 29.492188 C 50.679688 29.464844 50.808594 29.449219 50.929688 29.5 C 51.046875 29.554688 51.148438 29.675781 51.332031 29.890625 C 51.410156 29.976562 51.496094 30.078125 51.589844 30.1875 C 51.726562 30.351562 51.882812 30.535156 52.027344 30.722656 C 52.269531 31.039062 52.492188 31.363281 52.617188 31.53125 C 52.738281 31.699219 52.765625 31.714844 52.796875 31.714844 C 52.820312 31.710938 52.859375 31.691406 52.992188 31.515625 C 53.128906 31.339844 53.363281 31 53.738281 30.542969 C 54.113281 30.082031 54.628906 29.496094 55.109375 28.996094 C 55.589844 28.496094 56.03125 28.078125 56.597656 27.421875 C 57.164062 26.769531 57.855469 25.875 58.257812 25.308594 C 58.664062 24.75 58.785156 24.519531 58.800781 24.371094 C 58.8125 24.222656 58.714844 24.152344 58.636719 24.058594 C 58.582031 23.996094 58.535156 23.921875 58.539062 23.8125 C 58.539062 23.800781 58.539062 23.785156 58.542969 23.765625 C 58.484375 23.753906 58.425781 23.722656 58.371094 23.664062 C 58.222656 23.511719 58.074219 23.160156 57.914062 22.59375 C 57.75 22.027344 57.566406 21.246094 57.472656 20.808594 C 57.386719 20.375 57.386719 20.277344 57.464844 20.152344 C 57.546875 20.027344 57.707031 19.867188 57.839844 19.589844 C 57.976562 19.3125 58.089844 18.914062 58.101562 18.464844 C 58.117188 18.011719 58.027344 17.507812 57.894531 16.921875 C 57.757812 16.335938 57.582031 15.667969 57.40625 15.3125 C 57.234375 14.949219 57.070312 14.902344 56.957031 14.886719 C 56.84375 14.871094 56.78125 14.894531 56.746094 14.882812 C 56.710938 14.867188 56.707031 14.820312 56.566406 14.300781 C 56.429688 13.777344 56.152344 12.777344 55.824219 12 C 55.496094 11.222656 55.121094 10.671875 54.640625 10.175781 C 54.160156 9.683594 53.582031 9.246094 52.953125 8.761719 C 52.320312 8.277344 51.640625 7.753906 50.964844 7.363281 C 50.296875 6.980469 49.632812 6.738281 49.46875 6.738281 C 49.304688 6.738281 49.640625 6.980469 49.859375 7.199219 C 50.078125 7.425781 50.179688 7.625 49.820312 7.609375 C 49.464844 7.59375 48.648438 7.355469 48.101562 7.238281 C 47.554688 7.121094 47.277344 7.121094 47.007812 7.261719 C 46.734375 7.398438 46.46875 7.675781 46.128906 7.964844 C 45.792969 8.253906 45.386719 8.554688 45.203125 8.589844 C 45.011719 8.625 45.039062 8.386719 45.1875 8.0625 C 45.339844 7.734375 45.617188 7.316406 45.546875 7.292969 C 45.484375 7.273438 45.074219 7.648438 44.773438 8.003906 C 44.480469 8.355469 44.304688 8.679688 44.222656 8.691406 C 44.140625 8.699219 44.148438 8.386719 44.234375 8.066406 C 44.320312 7.742188 44.488281 7.40625 44.347656 7.519531 C 44.203125 7.636719 43.75 8.195312 43.535156 8.710938 C 43.324219 9.230469 43.351562 9.699219 43.277344 9.8125 C 43.207031 9.925781 43.039062 9.683594 42.992188 9.257812 C 42.945312 8.832031 43.023438 8.230469 42.882812 8.289062 C 42.746094 8.347656 42.390625 9.070312 42.132812 9.652344 C 41.867188 10.234375 41.699219 10.679688 41.632812 11.175781 C 41.558594 11.667969 41.585938 12.21875 41.71875 12.71875 C 41.851562 13.222656 42.097656 13.683594 42.207031 14.113281 C 42.3125 14.539062 42.292969 14.933594 42.285156 15.429688 C 42.273438 15.925781 42.285156 16.523438 42.4375 17.070312 C 42.59375 17.617188 42.894531 18.125 43.097656 18.476562 C 43.308594 18.835938 43.414062 19.046875 43.453125 19.167969 C 43.492188 19.285156 43.457031 19.316406 43.300781 19.390625 C 43.148438 19.472656 42.871094 19.597656 42.601562 19.730469 C 42.335938 19.863281 42.082031 20.007812 41.96875 20.125 C 41.855469 20.246094 41.890625 20.335938 41.929688 20.445312 C 41.972656 20.554688 42.015625 20.6875 42.085938 20.765625 C 42.152344 20.839844 42.25 20.867188 42.335938 20.914062 C 42.425781 20.964844 42.507812 21.035156 42.660156 21.269531 C 42.8125 21.5 43.039062 21.894531 43.242188 22.191406 C 43.453125 22.488281 43.648438 22.691406 43.84375 22.804688 C 44.042969 22.917969 44.253906 22.941406 44.414062 22.953125 C 44.578125 22.960938 44.699219 22.953125 44.964844 23.414062 C 45.230469 23.875 45.648438 24.808594 46.148438 25.589844 Z M 46.148438 25.589844 "/>
<path style=" stroke:none;fill-rule:evenodd;fill:rgb(47.058824%,34.117647%,25.882353%);fill-opacity:1;" d="M 56.738281 14.894531 C 56.625 14.925781 56.539062 14.964844 56.445312 15.054688 C 56.304688 15.191406 56.148438 15.441406 55.984375 15.707031 C 55.820312 15.972656 55.648438 16.253906 55.507812 16.449219 C 55.367188 16.648438 55.257812 16.753906 55.230469 16.988281 C 55.199219 17.222656 55.25 17.578125 55.339844 17.9375 C 55.4375 18.300781 55.570312 18.664062 55.65625 19.054688 C 55.742188 19.445312 55.777344 19.859375 55.703125 20.042969 C 55.621094 20.226562 55.433594 20.175781 55.289062 19.871094 C 55.148438 19.570312 55.0625 19.019531 54.804688 18.210938 C 54.546875 17.40625 54.125 16.347656 53.605469 15.585938 C 53.089844 14.820312 52.484375 14.351562 52.164062 13.78125 C 51.84375 13.214844 51.8125 12.546875 51.515625 12.207031 C 51.214844 11.863281 50.644531 11.84375 50.171875 11.867188 C 49.703125 11.890625 49.332031 11.945312 48.796875 12.257812 C 48.265625 12.566406 47.566406 13.128906 46.871094 13.433594 C 46.171875 13.742188 45.476562 13.792969 44.90625 13.867188 C 44.332031 13.933594 43.886719 14.027344 43.566406 14.269531 C 43.246094 14.503906 43.058594 14.894531 42.976562 15.4375 C 42.898438 15.980469 42.929688 16.6875 43 17.28125 C 43.066406 17.871094 43.175781 18.339844 43.253906 18.660156 C 43.265625 18.71875 43.28125 18.769531 43.285156 18.816406 C 43.230469 18.722656 43.171875 18.613281 43.09375 18.476562 C 42.890625 18.125 42.585938 17.617188 42.433594 17.070312 C 42.277344 16.523438 42.269531 15.925781 42.277344 15.429688 C 42.285156 14.933594 42.308594 14.539062 42.199219 14.113281 C 42.089844 13.683594 41.84375 13.222656 41.710938 12.71875 C 41.578125 12.21875 41.550781 11.667969 41.625 11.175781 C 41.695312 10.679688 41.863281 10.234375 42.125 9.652344 C 42.382812 9.070312 42.738281 8.347656 42.875 8.289062 C 43.015625 8.230469 42.9375 8.832031 42.984375 9.257812 C 43.03125 9.683594 43.199219 9.925781 43.269531 9.8125 C 43.34375 9.699219 43.316406 9.230469 43.53125 8.710938 C 43.746094 8.195312 44.199219 7.636719 44.339844 7.519531 C 44.484375 7.40625 44.316406 7.742188 44.226562 8.066406 C 44.140625 8.386719 44.132812 8.699219 44.214844 8.691406 C 44.300781 8.679688 44.472656 8.355469 44.769531 8.003906 C 45.066406 7.648438 45.476562 7.273438 45.542969 7.292969 C 45.609375 7.316406 45.332031 7.734375 45.183594 8.0625 C 45.03125 8.386719 45.003906 8.625 45.195312 8.589844 C 45.386719 8.554688 45.785156 8.253906 46.125 7.964844 C 46.460938 7.675781 46.726562 7.398438 47 7.261719 C 47.273438 7.121094 47.550781 7.121094 48.097656 7.238281 C 48.640625 7.355469 49.457031 7.59375 49.816406 7.609375 C 50.171875 7.625 50.070312 7.425781 49.855469 7.199219 C 49.632812 6.980469 49.296875 6.738281 49.460938 6.738281 C 49.625 6.738281 50.289062 6.980469 50.960938 7.363281 C 51.632812 7.753906 52.316406 8.277344 52.945312 8.761719 C 53.574219 9.246094 54.152344 9.683594 54.632812 10.175781 C 55.113281 10.671875 55.488281 11.222656 55.816406 12 C 56.144531 12.777344 56.421875 13.777344 56.5625 14.300781 C 56.703125 14.820312 56.707031 14.867188 56.742188 14.882812 C 56.746094 14.882812 56.75 14.890625 56.738281 14.894531 Z M 56.738281 14.894531 "/>
<path style=" stroke:none;fill-rule:evenodd;fill:rgb(20%,20%,20%);fill-opacity:1;" d="M 56.09375 15.339844 C 55.804688 15.410156 55.414062 15.453125 54.933594 15.582031 C 54.453125 15.710938 53.882812 15.929688 53.464844 16.113281 C 53.050781 16.296875 52.796875 16.449219 52.476562 16.550781 C 52.160156 16.660156 51.773438 16.714844 51.164062 16.855469 C 50.550781 16.996094 49.714844 17.222656 49.007812 17.511719 C 48.308594 17.800781 47.738281 18.160156 47.332031 18.386719 C 46.929688 18.617188 46.683594 18.714844 46.253906 18.789062 C 45.824219 18.867188 45.207031 18.914062 44.703125 19 C 44.285156 19.066406 43.945312 19.160156 43.441406 19.300781 C 43.414062 19.332031 43.371094 19.359375 43.296875 19.390625 C 43.140625 19.472656 42.863281 19.597656 42.597656 19.730469 C 42.328125 19.863281 42.074219 20.007812 41.964844 20.125 C 41.847656 20.246094 41.882812 20.335938 41.925781 20.445312 C 41.964844 20.554688 42.007812 20.6875 42.078125 20.765625 C 42.148438 20.839844 42.242188 20.867188 42.328125 20.914062 C 42.417969 20.964844 42.5 21.035156 42.65625 21.269531 C 42.808594 21.5 43.03125 21.894531 43.238281 22.191406 C 43.445312 22.488281 43.640625 22.691406 43.839844 22.804688 C 44.039062 22.917969 44.246094 22.941406 44.410156 22.953125 C 44.496094 22.957031 44.574219 22.957031 44.664062 23.027344 C 44.800781 22.960938 44.949219 22.941406 45.140625 22.90625 C 45.371094 22.855469 45.65625 22.773438 45.898438 22.613281 C 46.144531 22.449219 46.339844 22.199219 46.46875 21.988281 C 46.597656 21.773438 46.648438 21.59375 46.675781 21.273438 C 46.699219 20.953125 46.691406 20.488281 46.730469 20.179688 C 46.769531 19.867188 46.851562 19.714844 46.96875 19.636719 C 47.089844 19.554688 47.25 19.550781 47.492188 19.710938 C 47.734375 19.871094 48.058594 20.195312 48.367188 20.472656 C 48.679688 20.75 48.976562 20.980469 49.300781 21.101562 C 49.625 21.222656 49.976562 21.242188 50.355469 21.191406 C 50.738281 21.144531 51.144531 21.03125 51.492188 20.878906 C 51.839844 20.726562 52.121094 20.542969 52.308594 20.355469 C 52.5 20.167969 52.59375 19.980469 52.617188 19.640625 C 52.640625 19.292969 52.589844 18.789062 52.554688 18.402344 C 52.523438 18.015625 52.503906 17.738281 52.617188 17.558594 C 52.722656 17.371094 52.960938 17.277344 53.261719 17.171875 C 53.5625 17.074219 53.925781 16.964844 54.289062 16.871094 C 54.632812 16.789062 54.972656 16.714844 55.363281 16.65625 C 55.410156 16.585938 55.464844 16.511719 55.546875 16.390625 C 55.644531 16.242188 55.78125 16.03125 55.902344 15.835938 C 56.027344 15.644531 56.136719 15.472656 56.210938 15.355469 C 56.226562 15.335938 56.242188 15.3125 56.253906 15.292969 C 56.207031 15.308594 56.152344 15.324219 56.09375 15.339844 Z M 56.09375 15.339844 "/>
<path style=" stroke:none;fill-rule:evenodd;fill:rgb(90.196078%,90.196078%,90.196078%);fill-opacity:1;" d="M 48.011719 18.476562 C 48.171875 18.292969 48.464844 18.082031 48.800781 17.894531 C 49.140625 17.714844 49.523438 17.554688 49.9375 17.445312 C 50.347656 17.339844 50.796875 17.28125 51.097656 17.277344 C 51.398438 17.265625 51.554688 17.296875 51.699219 17.421875 C 51.847656 17.542969 51.984375 17.75 52.09375 18.074219 C 52.203125 18.394531 52.285156 18.832031 52.324219 19.171875 C 52.355469 19.511719 52.351562 19.757812 52.242188 19.976562 C 52.132812 20.203125 51.914062 20.398438 51.613281 20.574219 C 51.3125 20.746094 50.933594 20.886719 50.5625 20.953125 C 50.195312 21.011719 49.84375 20.996094 49.507812 20.898438 C 49.171875 20.796875 48.851562 20.613281 48.585938 20.371094 C 48.324219 20.125 48.113281 19.820312 47.988281 19.582031 C 47.863281 19.347656 47.828125 19.167969 47.824219 19 C 47.820312 18.828125 47.847656 18.664062 48.011719 18.476562 Z M 48.011719 18.476562 "/>
<path style=" stroke:none;fill-rule:evenodd;fill:rgb(90.196078%,90.196078%,90.196078%);fill-opacity:1;" d="M 43.527344 19.59375 C 43.6875 19.511719 43.882812 19.425781 44.117188 19.359375 C 44.34375 19.300781 44.605469 19.257812 44.921875 19.234375 C 45.242188 19.210938 45.621094 19.203125 45.882812 19.21875 C 46.148438 19.238281 46.296875 19.285156 46.378906 19.457031 C 46.464844 19.632812 46.480469 19.929688 46.492188 20.273438 C 46.503906 20.625 46.503906 21.023438 46.445312 21.355469 C 46.386719 21.6875 46.269531 21.949219 46.089844 22.15625 C 45.910156 22.359375 45.671875 22.507812 45.386719 22.597656 C 45.09375 22.683594 44.761719 22.714844 44.46875 22.683594 C 44.175781 22.652344 43.929688 22.566406 43.6875 22.328125 C 43.441406 22.09375 43.203125 21.707031 43.050781 21.414062 C 42.902344 21.117188 42.835938 20.910156 42.804688 20.699219 C 42.777344 20.492188 42.78125 20.28125 42.839844 20.128906 C 42.902344 19.980469 43.011719 19.894531 43.128906 19.8125 C 43.246094 19.738281 43.367188 19.667969 43.527344 19.59375 Z M 43.527344 19.59375 "/>
<path style=" stroke:none;fill-rule:evenodd;fill:rgb(92.156863%,73.72549%,58.823529%);fill-opacity:1;" d="M 56.296875 20.960938 C 56.242188 21.355469 56.292969 22.117188 56.300781 22.769531 C 56.3125 23.425781 56.277344 23.972656 56.050781 24.554688 C 55.824219 25.140625 55.40625 25.757812 54.949219 26.292969 C 54.496094 26.824219 54.011719 27.269531 53.667969 27.660156 C 53.328125 28.042969 53.132812 28.371094 52.761719 28.625 C 52.386719 28.882812 51.832031 29.066406 51.460938 29.175781 C 51.09375 29.285156 50.910156 29.316406 50.9375 29.433594 C 50.957031 29.546875 51.195312 29.738281 51.414062 29.960938 C 51.632812 30.183594 51.832031 30.433594 52.035156 30.714844 C 52.246094 30.996094 52.457031 31.308594 52.585938 31.511719 C 52.714844 31.710938 52.765625 31.804688 52.886719 31.671875 C 53.007812 31.539062 53.203125 31.191406 53.5 30.785156 C 53.796875 30.382812 54.199219 29.929688 54.691406 29.394531 C 55.183594 28.855469 55.761719 28.238281 56.128906 27.726562 C 56.496094 27.21875 56.648438 26.824219 56.722656 25.992188 C 56.800781 25.15625 56.800781 23.878906 56.746094 22.933594 C 56.695312 21.992188 56.597656 21.378906 56.695312 21.023438 C 56.800781 20.671875 57.105469 20.574219 57.28125 20.453125 C 57.453125 20.328125 57.5 20.179688 57.378906 20.1875 C 57.257812 20.195312 56.964844 20.355469 56.738281 20.445312 C 56.515625 20.542969 56.355469 20.5625 56.296875 20.960938 Z M 56.296875 20.960938 "/>
<path style=" stroke:none;fill-rule:evenodd;fill:rgb(29.019608%,28.627451%,28.627451%);fill-opacity:1;" d="M 13.742188 54.664062 L 30.476562 55.789062 C 31.410156 55.828125 34.40625 55.984375 35.09375 55.511719 L 35.980469 54.910156 C 35.851562 54.898438 35.710938 54.886719 35.566406 54.863281 C 35.042969 54.785156 34.414062 54.597656 33.871094 54.378906 C 33.328125 54.164062 32.875 53.910156 32.40625 53.699219 C 31.933594 53.488281 31.449219 53.324219 31.007812 53.125 C 30.566406 52.929688 30.171875 52.703125 29.769531 52.453125 C 29.375 52.207031 28.972656 51.9375 28.675781 51.808594 C 28.375 51.679688 28.183594 51.6875 28.058594 51.804688 C 27.925781 51.921875 27.871094 52.144531 27.769531 52.425781 C 27.667969 52.703125 27.527344 53.03125 27.328125 53.167969 C 27.132812 53.308594 26.878906 53.253906 26.734375 53.140625 C 26.59375 53.023438 26.558594 52.835938 26.507812 52.722656 C 26.449219 52.609375 26.375 52.570312 26.351562 52.441406 C 26.324219 52.316406 26.351562 52.105469 26.394531 51.867188 C 26.441406 51.628906 26.511719 51.359375 26.667969 51.039062 C 26.820312 50.722656 27.0625 50.355469 27.289062 50.011719 C 27.507812 49.671875 27.710938 49.359375 27.933594 49.171875 C 28.15625 48.984375 28.398438 48.917969 28.527344 48.839844 C 28.652344 48.757812 28.660156 48.664062 28.664062 48.394531 C 28.667969 48.175781 28.667969 47.84375 28.71875 47.464844 L 27.335938 47.371094 L 22.09375 31.609375 C 21.9375 31.140625 21.609375 30.890625 21.136719 30.855469 L 7.425781 31.15625 C 6.835938 31.207031 6.585938 31.585938 6.757812 32.175781 L 12.832031 51.664062 C 12.957031 51.960938 13.203125 52.140625 13.363281 52.3125 C 12.5625 52.738281 12.34375 52.644531 12.605469 53.726562 C 12.765625 54.402344 13.117188 54.621094 13.742188 54.664062 Z M 36.355469 49.652344 C 36.769531 49.878906 37.035156 50.082031 37.300781 50.238281 C 37.566406 50.390625 37.839844 50.5 38.394531 50.589844 C 38.949219 50.675781 39.785156 50.753906 40.265625 50.800781 C 40.492188 50.820312 40.640625 50.835938 40.730469 50.953125 C 40.824219 50.921875 40.914062 50.898438 40.996094 50.882812 C 41.273438 50.8125 41.382812 50.828125 41.785156 50.863281 C 41.820312 50.863281 41.847656 50.867188 41.882812 50.871094 L 43.867188 49.339844 C 44.21875 49.070312 44.125 49.015625 44.164062 48.558594 C 43.730469 48.539062 43.285156 48.503906 42.910156 48.464844 L 40.53125 48.296875 L 40.449219 48.296875 L 38.613281 48.164062 L 37.859375 48.113281 C 37.796875 48.144531 37.730469 48.179688 37.660156 48.214844 C 37.328125 48.371094 36.917969 48.453125 36.570312 48.398438 C 36.222656 48.34375 35.9375 48.148438 35.667969 48.101562 C 35.402344 48.050781 35.15625 48.148438 34.867188 48.179688 C 34.570312 48.207031 34.234375 48.164062 34.007812 48.058594 C 33.875 47.996094 33.785156 47.910156 33.71875 47.820312 L 32.046875 47.699219 C 31.9375 47.839844 31.835938 47.980469 31.761719 48.082031 C 31.578125 48.324219 31.515625 48.386719 31.628906 48.386719 C 31.742188 48.386719 32.023438 48.324219 32.226562 48.324219 C 32.421875 48.324219 32.546875 48.386719 32.75 48.386719 C 32.957031 48.382812 33.25 48.316406 33.507812 48.324219 C 33.773438 48.335938 34.007812 48.425781 34.21875 48.542969 C 34.421875 48.660156 34.605469 48.808594 34.984375 49 C 35.359375 49.191406 35.9375 49.433594 36.355469 49.652344 Z M 36.355469 49.652344 "/>
<path style=" stroke:none;fill-rule:evenodd;fill:rgb(43.921569%,43.529412%,43.529412%);fill-opacity:1;" d="M 8.453125 32.957031 L 21.804688 32.386719 C 21.992188 32.378906 21.953125 32.347656 22.011719 32.523438 L 26.519531 45.667969 C 26.574219 45.820312 26.609375 45.808594 26.472656 45.859375 L 14.007812 50.296875 C 13.820312 50.359375 13.855469 50.382812 13.796875 50.199219 L 8.285156 33.265625 C 8.234375 33.097656 8.242188 32.9375 8.453125 32.957031 Z M 8.453125 32.957031 "/>
<path style=" stroke:none;fill-rule:evenodd;fill:rgb(56.078431%,55.294118%,55.686275%);fill-opacity:1;" d="M 13.570312 32.734375 C 16.644531 37.886719 20.007812 42.675781 23.933594 46.761719 L 26.472656 45.859375 C 26.609375 45.808594 26.574219 45.820312 26.519531 45.667969 L 22.011719 32.523438 C 21.953125 32.347656 21.992188 32.378906 21.804688 32.386719 Z M 13.570312 32.734375 "/>
<path style=" stroke:none;fill-rule:evenodd;fill:rgb(29.019608%,28.627451%,28.627451%);fill-opacity:1;" d="M 13.570312 32.734375 L 21.804688 32.386719 C 21.992188 32.378906 21.953125 32.347656 22.011719 32.523438 L 26.519531 45.667969 C 26.574219 45.820312 26.609375 45.808594 26.472656 45.859375 L 23.933594 46.761719 C 24.355469 47.199219 24.785156 47.628906 25.222656 48.050781 L 27.335938 47.371094 L 22.09375 31.609375 C 21.9375 31.140625 21.609375 30.890625 21.136719 30.855469 L 12.574219 31.042969 C 12.90625 31.613281 13.234375 32.175781 13.570312 32.734375 Z M 13.570312 32.734375 "/>
<path style=" stroke:none;fill-rule:evenodd;fill:rgb(43.921569%,43.529412%,43.529412%);fill-opacity:1;" d="M 12.972656 52.910156 L 34.496094 54.898438 C 35.203125 55.015625 35.128906 55.203125 34.800781 55.363281 C 34.5 55.507812 33.976562 55.625 33.664062 55.632812 L 13.90625 54.4375 C 12.5625 54.359375 12.605469 53.015625 12.972656 52.910156 Z M 12.972656 52.910156 "/>
<path style=" stroke:none;fill-rule:nonzero;fill:rgb(56.078431%,55.294118%,55.686275%);fill-opacity:1;" d="M 7.03125 31.917969 C 7.007812 31.84375 7.046875 31.773438 7.117188 31.75 C 7.1875 31.726562 7.261719 31.765625 7.285156 31.835938 L 13.710938 52 C 13.734375 52.070312 13.691406 52.144531 13.625 52.167969 C 13.550781 52.191406 13.480469 52.152344 13.457031 52.082031 Z M 7.03125 31.917969 "/>
<path style=" stroke:none;fill-rule:nonzero;fill:rgb(56.078431%,55.294118%,55.686275%);fill-opacity:1;" d="M 17.011719 52.089844 C 16.941406 52.117188 16.863281 52.085938 16.835938 52.015625 C 16.808594 51.949219 16.84375 51.867188 16.914062 51.84375 L 25.039062 48.570312 C 25.109375 48.542969 25.183594 48.578125 25.214844 48.644531 C 25.242188 48.714844 25.207031 48.789062 25.136719 48.816406 Z M 17.011719 52.089844 "/>
<path style=" stroke:none;fill-rule:nonzero;fill:rgb(80%,80%,80%);fill-opacity:1;" d="M 15.410156 51.816406 C 15.375 51.828125 15.335938 51.8125 15.324219 51.773438 C 15.3125 51.738281 15.328125 51.699219 15.363281 51.691406 L 16.6875 51.199219 C 16.722656 51.1875 16.761719 51.203125 16.773438 51.238281 C 16.785156 51.269531 16.769531 51.308594 16.734375 51.324219 Z M 15.410156 51.816406 "/>
<path style=" stroke:none;fill-rule:evenodd;fill:rgb(92.156863%,73.72549%,58.823529%);fill-opacity:1;" d="M 38.679688 53.722656 C 38.273438 53.5 37.84375 53.433594 37.398438 53.410156 C 36.6875 53.371094 35.9375 53.457031 34.515625 53.0625 C 33.089844 52.675781 30.992188 51.8125 29.769531 51.332031 C 28.542969 50.851562 28.203125 50.761719 27.925781 51.007812 C 27.652344 51.253906 27.449219 51.84375 27.28125 52.199219 C 27.109375 52.558594 26.96875 52.683594 26.828125 52.710938 C 26.730469 52.730469 26.636719 52.699219 26.464844 52.65625 C 26.480469 52.675781 26.492188 52.699219 26.507812 52.722656 C 26.558594 52.835938 26.59375 53.023438 26.734375 53.140625 C 26.878906 53.253906 27.132812 53.308594 27.328125 53.167969 C 27.527344 53.03125 27.667969 52.703125 27.769531 52.425781 C 27.871094 52.144531 27.925781 51.921875 28.058594 51.804688 C 28.183594 51.6875 28.375 51.679688 28.675781 51.808594 C 28.972656 51.9375 29.375 52.207031 29.769531 52.453125 C 30.171875 52.703125 30.566406 52.929688 31.007812 53.125 C 31.449219 53.324219 31.933594 53.488281 32.40625 53.699219 C 32.875 53.910156 33.328125 54.164062 33.871094 54.378906 C 34.414062 54.597656 35.042969 54.785156 35.566406 54.863281 C 36.085938 54.945312 36.496094 54.921875 36.730469 54.90625 C 37.261719 54.867188 38.65625 56.039062 39.535156 56.296875 C 39.507812 56.234375 39.476562 56.203125 39.4375 56.15625 C 39.316406 56.007812 39.15625 55.734375 39.003906 55.34375 C 38.847656 54.949219 38.699219 54.4375 38.679688 53.917969 Z M 38.679688 53.722656 "/>
<path style=" stroke:none;fill-rule:evenodd;fill:rgb(92.156863%,73.72549%,58.823529%);fill-opacity:1;" d="M 40.011719 47.042969 C 39.757812 47.074219 39.5625 47.125 39.320312 47.097656 C 39.019531 47.066406 38.632812 46.910156 38.328125 47 C 38.019531 47.09375 37.792969 47.433594 37.519531 47.636719 C 37.253906 47.839844 36.945312 47.90625 36.609375 47.878906 C 36.273438 47.851562 35.910156 47.730469 35.511719 47.703125 C 35.121094 47.679688 34.695312 47.742188 34.410156 47.691406 C 34.128906 47.640625 33.988281 47.472656 33.917969 47.238281 C 33.871094 47.085938 33.851562 46.90625 33.816406 46.785156 C 33.769531 46.605469 33.75 46.644531 33.671875 46.769531 C 33.621094 46.859375 33.558594 47.007812 33.542969 47.15625 C 33.523438 47.308594 33.550781 47.464844 33.617188 47.625 C 33.679688 47.789062 33.789062 47.957031 34.007812 48.058594 C 34.234375 48.164062 34.570312 48.207031 34.867188 48.179688 C 35.15625 48.148438 35.402344 48.050781 35.667969 48.101562 C 35.9375 48.148438 36.222656 48.34375 36.570312 48.398438 C 36.917969 48.453125 37.328125 48.371094 37.660156 48.214844 C 37.914062 48.097656 38.316406 47.933594 38.445312 47.667969 C 38.476562 47.609375 38.492188 47.566406 38.511719 47.597656 C 38.519531 47.605469 38.527344 47.625 38.539062 47.644531 C 38.582031 47.730469 38.613281 47.792969 38.683594 47.839844 C 38.765625 47.902344 38.910156 47.933594 39.074219 47.890625 C 39.234375 47.847656 39.410156 47.734375 39.570312 47.59375 C 39.726562 47.453125 39.867188 47.285156 39.980469 47.097656 C 39.992188 47.082031 40.003906 47.0625 40.011719 47.042969 Z M 40.011719 47.042969 "/>
<path style=" stroke:none;fill-rule:evenodd;fill:rgb(23.921569%,23.529412%,23.529412%);fill-opacity:1;" d="M 36.355469 49.652344 C 36.769531 49.878906 37.035156 50.082031 37.300781 50.238281 C 37.394531 50.292969 37.496094 50.34375 37.605469 50.386719 L 39.429688 49.019531 L 34.460938 48.695312 C 34.59375 48.78125 34.753906 48.882812 34.984375 49 C 35.359375 49.191406 35.9375 49.433594 36.355469 49.652344 Z M 18.382812 52.34375 L 32.886719 53.925781 C 32.726562 53.847656 32.566406 53.773438 32.40625 53.699219 C 31.933594 53.488281 31.449219 53.324219 31.007812 53.125 C 30.566406 52.929688 30.171875 52.703125 29.769531 52.453125 C 29.375 52.207031 28.972656 51.9375 28.675781 51.808594 C 28.375 51.679688 28.183594 51.6875 28.058594 51.804688 C 27.925781 51.921875 27.871094 52.144531 27.769531 52.425781 C 27.667969 52.703125 27.527344 53.03125 27.328125 53.167969 C 27.132812 53.308594 26.878906 53.253906 26.734375 53.140625 C 26.59375 53.023438 26.558594 52.835938 26.507812 52.722656 C 26.492188 52.699219 26.480469 52.675781 26.464844 52.65625 C 26.417969 52.585938 26.367188 52.539062 26.351562 52.441406 C 26.324219 52.316406 26.351562 52.105469 26.394531 51.867188 C 26.441406 51.628906 26.511719 51.359375 26.667969 51.039062 C 26.820312 50.722656 27.0625 50.355469 27.289062 50.011719 C 27.507812 49.671875 27.710938 49.359375 27.933594 49.171875 C 28.15625 48.984375 28.398438 48.917969 28.527344 48.839844 C 28.652344 48.757812 28.660156 48.664062 28.664062 48.394531 C 28.664062 48.371094 28.667969 48.34375 28.667969 48.316406 L 27.957031 48.273438 Z M 18.382812 52.34375 "/>
<path style=" stroke:none;fill-rule:evenodd;fill:rgb(92.156863%,73.72549%,58.823529%);fill-opacity:1;" d="M 44.964844 23.414062 C 45.230469 23.875 45.648438 24.808594 46.148438 25.589844 C 46.644531 26.375 47.234375 27.015625 47.640625 27.4375 C 48.046875 27.863281 48.277344 28.074219 48.449219 28.347656 C 48.621094 28.625 48.738281 28.972656 48.9375 29.1875 C 49.132812 29.40625 49.40625 29.496094 49.660156 29.53125 C 49.84375 29.558594 50.011719 29.550781 50.054688 29.597656 L 50.074219 29.59375 L 50.070312 29.589844 C 49.855469 29.308594 49.652344 29.015625 49.171875 28.328125 C 48.691406 27.636719 47.933594 26.546875 47.355469 25.136719 C 46.964844 24.195312 46.65625 23.109375 46.421875 22.0625 C 46.296875 22.257812 46.113281 22.46875 45.898438 22.613281 C 45.65625 22.773438 45.371094 22.855469 45.140625 22.90625 C 44.949219 22.941406 44.804688 22.960938 44.667969 23.027344 C 44.75 23.085938 44.84375 23.199219 44.964844 23.414062 Z M 43 17.28125 C 43.066406 17.871094 43.175781 18.339844 43.253906 18.660156 C 43.265625 18.714844 43.277344 18.761719 43.28125 18.800781 C 43.375 18.972656 43.429688 19.085938 43.453125 19.167969 C 43.472656 19.226562 43.472656 19.265625 43.449219 19.296875 C 43.949219 19.160156 44.285156 19.066406 44.703125 19 C 45.074219 18.9375 45.5 18.898438 45.871094 18.847656 C 44.308594 18.730469 44.078125 18.480469 43.941406 16.746094 C 43.808594 15.007812 45.140625 14.6875 45.96875 14.011719 C 46.792969 13.332031 46.007812 13.800781 46.03125 13.703125 C 45.628906 13.785156 45.242188 13.824219 44.90625 13.867188 C 44.332031 13.933594 43.886719 14.027344 43.566406 14.269531 C 43.246094 14.503906 43.058594 14.894531 42.976562 15.4375 C 42.898438 15.980469 42.929688 16.6875 43 17.28125 Z M 43 17.28125 "/>
</g>
</svg>
