<?xml version="1.0" encoding="UTF-8"?>
<svg xmlns="http://www.w3.org/2000/svg" xmlns:xlink="http://www.w3.org/1999/xlink" width="100px" height="107px" viewBox="0 0 100 107" version="1.1">
<g id="surface1">
<path style=" stroke:none;fill-rule:nonzero;fill:rgb(0%,0%,0%);fill-opacity:1;" d="M 43.632812 4.671875 C 22.355469 4.449219 23.675781 10.492188 16.585938 24.699219 C 14.546875 28.476562 11.503906 30.976562 9.824219 34.957031 C 7.441406 40.609375 8.132812 53.515625 8.132812 53.515625 C 8.679688 48.214844 8.875 44.332031 12.925781 40.9375 L 14.277344 45.945312 C 14.277344 45.945312 12.5625 49.71875 12.472656 52.355469 C 12.367188 55.460938 14.5 60.292969 14.5 60.292969 C 14.5 60.292969 14.105469 69.289062 13.207031 73.664062 C 12.359375 77.785156 11.503906 82.097656 9.375 85.632812 C 7.050781 89.488281 0.0195312 95.035156 0.0195312 95.035156 C 4.253906 94.410156 8.636719 94.386719 13.996094 91.980469 C 13.136719 94.089844 11.960938 96.546875 10.5 99.308594 C 16.011719 98.804688 21.234375 95.023438 26.390625 90.515625 C 26.753906 93.324219 27.132812 96.132812 25.152344 98.941406 C 25.152344 98.941406 32.222656 90.699219 34.054688 86.851562 C 41.546875 71.121094 53.550781 38.128906 53.550781 38.128906 L 73.382812 78.183594 C 80.007812 88.164062 84.113281 93.535156 96.148438 91.128906 C 89.183594 88.558594 85.78125 86.074219 82.851562 81.113281 C 88.914062 84.425781 93.59375 84.320312 99.980469 81.601562 C 99.980469 81.601562 91.027344 79.3125 88.257812 75.742188 C 85.808594 72.582031 85.328125 63.773438 85.328125 63.773438 C 87.582031 72.191406 89.835938 72.164062 92.089844 73.054688 C 91.621094 73.292969 85.105469 59.808594 85.554688 54.496094 C 86.453125 43.847656 86.425781 50.132812 85.554688 26.898438 C 85.210938 17.738281 79.296875 9.179688 71.804688 4.917969 C 61.488281 -0.957031 53.613281 -2.195312 43.632812 4.671875 Z M 43.632812 4.671875 "/>
<path style=" stroke:none;fill-rule:nonzero;fill:rgb(87.45098%,49.803922%,34.901961%);fill-opacity:1;" d="M 33.265625 107.003906 C 34.8125 93.699219 31.996094 87.421875 30.5625 77.449219 L 71.355469 67.925781 C 71.171875 73.5 70.730469 76.585938 69.78125 84.535156 C 68.050781 98.957031 69.253906 91.894531 86.910156 107 Z M 33.265625 107.003906 "/>
<path style=" stroke:none;fill-rule:nonzero;fill:rgb(88.627451%,54.901961%,41.568627%);fill-opacity:1;" d="M 33.039062 22.378906 L 26.730469 32.027344 C 25.894531 34.820312 24.796875 37.007812 24.25 40.453125 C 23.894531 42.699219 24.207031 44.929688 24.363281 47.167969 C 24.230469 47.9375 24.128906 48.722656 24.589844 49.730469 C 22.480469 55.011719 22.933594 61.109375 23.292969 66.828125 C 23.632812 72.222656 27.601562 79.441406 31.800781 86.851562 C 31.800781 86.851562 39.179688 97.964844 46.113281 98.574219 C 52.011719 99.09375 55.414062 95.871094 58.960938 92.59375 C 64.398438 87.566406 68.371094 83.917969 71.46875 76.597656 C 73.859375 70.949219 75.011719 64.5625 75.753906 58.402344 C 76.683594 50.6875 77.777344 40.957031 75.753906 33.492188 C 74.574219 29.148438 69.554688 18.839844 69.554688 18.839844 L 47.691406 13.953125 Z M 33.039062 22.378906 "/>
<path style=" stroke:none;fill-rule:nonzero;fill:rgb(0%,0%,0%);fill-opacity:1;" d="M 68.480469 47.925781 C 66.75 43.308594 63.296875 43.386719 59.394531 44.042969 C 57.113281 44.421875 52.859375 46.546875 52.859375 46.546875 C 48.953125 48.675781 49.644531 46.183594 52.542969 44.90625 C 52.542969 44.90625 56.292969 42.566406 58.359375 42.574219 C 63.289062 42.59375 67.851562 42.015625 68.480469 47.925781 Z M 68.480469 47.925781 "/>
<path style=" stroke:none;fill-rule:nonzero;fill:rgb(0%,0%,0%);fill-opacity:1;" d="M 28.332031 44.824219 C 27.910156 44.824219 27.476562 44.851562 27.042969 44.90625 C 26.089844 45.027344 25.0625 45.21875 24.253906 45.777344 C 24.289062 46.191406 24.324219 46.609375 24.355469 47.027344 C 24.453125 46.984375 24.570312 46.925781 24.648438 46.894531 C 25.492188 46.53125 26.214844 46.25 27.121094 46.289062 C 27.617188 46.3125 28.5625 46.453125 29.03125 46.632812 C 30.242188 47.089844 31.03125 47.296875 32.300781 47.496094 C 33.222656 47.640625 35.09375 47.667969 35.09375 47.667969 C 35.09375 47.667969 33.140625 46.042969 32.058594 45.59375 C 30.828125 45.085938 29.605469 44.828125 28.332031 44.824219 Z M 28.332031 44.824219 "/>
<path style=" stroke:none;fill-rule:nonzero;fill:rgb(0%,0%,0%);fill-opacity:1;" d="M 50.710938 53.972656 C 50.710938 53.972656 51.292969 52.671875 51.746094 52.160156 C 52.746094 51.019531 55.332031 49.480469 55.332031 49.480469 C 53.957031 49.925781 52.910156 50.683594 51.824219 51.640625 C 53.5 48.226562 61.308594 46.496094 63.777344 49.828125 C 60.816406 48.214844 59.457031 48.398438 58.121094 48.703125 C 58.121094 48.703125 60.453125 49.109375 61.546875 49.566406 C 65.074219 51.042969 63.886719 51.523438 67.085938 50.214844 C 67.085938 50.214844 65.628906 51.144531 64.296875 52.503906 C 63.59375 53.222656 62.535156 54.226562 61.628906 54.578125 C 60.515625 55.003906 59.300781 55.074219 58.121094 55.09375 C 56.359375 55.121094 52.863281 54.488281 52.863281 54.488281 C 51.96875 54.386719 50.445312 54.632812 50.710938 53.972656 Z M 50.710938 53.972656 "/>
<path style=" stroke:none;fill-rule:nonzero;fill:rgb(93.333333%,94.901961%,95.686275%);fill-opacity:1;" d="M 51.183594 53.730469 C 51.183594 53.730469 54.011719 49.886719 57.550781 49.730469 C 59.457031 49.648438 62.960938 51.746094 62.960938 51.746094 C 62.960938 51.746094 60.339844 53.808594 58.621094 54.066406 C 57.003906 54.308594 54.734375 53.574219 53.101562 53.578125 C 52.378906 53.582031 51.183594 53.730469 51.183594 53.730469 Z M 51.183594 53.730469 "/>
<path style=" stroke:none;fill-rule:nonzero;fill:rgb(0%,0%,0%);fill-opacity:1;" d="M 57.738281 49.730469 C 57.675781 49.726562 57.613281 49.730469 57.554688 49.734375 C 56.894531 49.761719 56.257812 49.914062 55.660156 50.152344 C 55.46875 50.535156 55.355469 50.976562 55.355469 51.445312 C 55.355469 52.820312 56.3125 53.949219 57.542969 54.105469 C 57.695312 54.113281 57.84375 54.117188 57.988281 54.113281 C 58.023438 54.113281 58.054688 54.109375 58.085938 54.109375 C 59.335938 53.972656 60.3125 52.832031 60.3125 51.445312 C 60.3125 51.046875 60.230469 50.667969 60.089844 50.328125 C 59.273438 50.003906 58.421875 49.746094 57.738281 49.730469 Z M 57.738281 49.730469 "/>
<path style=" stroke:none;fill-rule:nonzero;fill:rgb(50.196078%,0%,0%);fill-opacity:1;" d="M 57.738281 49.730469 C 57.675781 49.726562 57.613281 49.730469 57.554688 49.734375 C 57.015625 49.757812 56.492188 49.863281 55.992188 50.035156 C 55.730469 50.429688 55.578125 50.917969 55.578125 51.445312 C 55.578125 52.792969 56.589844 53.886719 57.835938 53.886719 C 59.082031 53.886719 60.089844 52.792969 60.089844 51.445312 C 60.089844 50.996094 59.976562 50.570312 59.785156 50.210938 C 59.0625 49.941406 58.335938 49.742188 57.738281 49.730469 Z M 57.738281 49.730469 "/>
<path style=" stroke:none;fill-rule:nonzero;fill:rgb(0%,0%,0%);fill-opacity:1;" d="M 58.757812 51.441406 C 58.757812 51.996094 58.34375 52.445312 57.832031 52.445312 C 57.324219 52.445312 56.910156 51.996094 56.910156 51.441406 C 56.910156 50.886719 57.324219 50.4375 57.832031 50.4375 C 58.34375 50.4375 58.757812 50.886719 58.757812 51.441406 Z M 58.757812 51.441406 "/>
<path style=" stroke:none;fill-rule:nonzero;fill:rgb(90.196078%,90.196078%,90.196078%);fill-opacity:1;" d="M 59.226562 51.386719 C 59.226562 51.875 58.957031 52.273438 58.628906 52.273438 C 58.300781 52.273438 58.035156 51.875 58.035156 51.386719 C 58.035156 50.894531 58.300781 50.5 58.628906 50.5 C 58.957031 50.5 59.226562 50.894531 59.226562 51.386719 Z M 59.226562 51.386719 "/>
<path style=" stroke:none;fill-rule:nonzero;fill:rgb(90.196078%,90.196078%,90.196078%);fill-opacity:1;" d="M 57.894531 53.03125 C 57.894531 53.421875 57.675781 53.738281 57.410156 53.738281 C 57.140625 53.738281 56.921875 53.421875 56.921875 53.03125 C 56.921875 52.640625 57.140625 52.320312 57.410156 52.320312 C 57.675781 52.320312 57.894531 52.640625 57.894531 53.03125 Z M 57.894531 53.03125 "/>
<path style=" stroke:none;fill-rule:nonzero;fill:rgb(87.45098%,49.803922%,34.901961%);fill-opacity:1;" d="M 24.253906 48.351562 C 24.269531 48.773438 24.359375 49.226562 24.589844 49.734375 C 23.992188 51.230469 23.597656 52.789062 23.351562 54.386719 L 26.054688 54.25 L 30.226562 50.34375 C 27.28125 50.257812 25.867188 50.132812 24.253906 48.351562 Z M 24.253906 48.351562 "/>
<path style=" stroke:none;fill-rule:nonzero;fill:rgb(0%,0%,0%);fill-opacity:1;" d="M 36.898438 53.054688 C 36.007812 51.628906 32.804688 50.8125 31.914062 50.890625 C 33.34375 50.5625 34.28125 50.992188 35.578125 51.5625 C 33.691406 50.402344 32.03125 49.847656 30.84375 49.898438 C 29.039062 49.972656 26.578125 49.890625 26.449219 52.296875 C 26.179688 52.695312 25.886719 53.035156 25.546875 53.273438 C 25.898438 53.386719 26.132812 53.378906 26.335938 53.332031 C 26.207031 53.621094 25.917969 53.863281 25.488281 54.066406 C 25.488281 54.066406 26.976562 55.679688 27.914062 56.140625 C 28.851562 56.605469 29.671875 56.675781 30.703125 56.601562 C 31.609375 56.535156 32.957031 56.019531 32.957031 56.019531 C 33.953125 55.667969 35.738281 55.738281 36.738281 55.558594 C 38.089844 55.316406 37.371094 53.8125 36.898438 53.054688 Z M 36.898438 53.054688 "/>
<path style=" stroke:none;fill-rule:nonzero;fill:rgb(93.333333%,94.901961%,95.686275%);fill-opacity:1;" d="M 32.363281 51.320312 C 37.191406 51.746094 37.097656 54.242188 37.070312 54.402344 C 36.992188 54.808594 36.195312 54.898438 35.195312 55.074219 C 34.28125 55.234375 33.191406 55.5 32.421875 55.53125 C 31.542969 55.566406 30.484375 55.503906 29.6875 55.105469 C 28.765625 54.644531 28.1875 53.921875 28.167969 53.484375 C 28.105469 52.113281 31.578125 51.25 32.363281 51.320312 Z M 32.363281 51.320312 "/>
<path style=" stroke:none;fill-rule:nonzero;fill:rgb(0%,0%,0%);fill-opacity:1;" d="M 32.1875 51.316406 C 31.847656 51.328125 31.292969 51.433594 30.699219 51.609375 C 30.488281 52 30.367188 52.453125 30.367188 52.9375 C 30.367188 54.21875 31.203125 55.285156 32.316406 55.535156 L 32.320312 55.535156 L 32.417969 55.53125 C 32.832031 55.515625 33.339844 55.429688 33.859375 55.332031 C 34.6875 54.90625 35.265625 54 35.265625 52.9375 C 35.265625 52.585938 35.199219 52.246094 35.082031 51.933594 C 34.417969 51.648438 33.539062 51.425781 32.363281 51.320312 C 32.316406 51.316406 32.253906 51.3125 32.1875 51.316406 Z M 32.1875 51.316406 "/>
<path style=" stroke:none;fill-rule:nonzero;fill:rgb(50.196078%,0%,0%);fill-opacity:1;" d="M 32.1875 51.316406 C 31.945312 51.324219 31.585938 51.378906 31.179688 51.476562 C 30.878906 51.871094 30.699219 52.386719 30.699219 52.9375 C 30.699219 54.207031 31.644531 55.230469 32.8125 55.230469 C 33.984375 55.230469 34.933594 54.207031 34.933594 52.9375 C 34.933594 52.511719 34.820312 52.109375 34.632812 51.765625 C 34.035156 51.5625 33.292969 51.402344 32.363281 51.320312 C 32.316406 51.316406 32.257812 51.3125 32.1875 51.316406 Z M 32.1875 51.316406 "/>
<path style=" stroke:none;fill-rule:nonzero;fill:rgb(0%,0%,0%);fill-opacity:1;" d="M 33.574219 52.9375 C 33.574219 53.390625 33.234375 53.761719 32.816406 53.761719 C 32.398438 53.761719 32.058594 53.390625 32.058594 52.9375 C 32.058594 52.484375 32.398438 52.113281 32.816406 52.113281 C 33.234375 52.113281 33.574219 52.484375 33.574219 52.9375 Z M 33.574219 52.9375 "/>
<path style=" stroke:none;fill-rule:nonzero;fill:rgb(90.196078%,90.196078%,90.196078%);fill-opacity:1;" d="M 33.757812 54.347656 C 33.757812 54.753906 33.488281 55.085938 33.160156 55.085938 C 32.832031 55.085938 32.5625 54.753906 32.5625 54.347656 C 32.5625 53.941406 32.832031 53.609375 33.160156 53.609375 C 33.488281 53.609375 33.757812 53.941406 33.757812 54.347656 Z M 33.757812 54.347656 "/>
<path style=" stroke:none;fill-rule:nonzero;fill:rgb(90.196078%,90.196078%,90.196078%);fill-opacity:1;" d="M 34.222656 53.15625 C 34.046875 53.515625 33.738281 53.710938 33.53125 53.59375 C 33.328125 53.472656 33.308594 53.085938 33.484375 52.726562 C 33.664062 52.367188 33.972656 52.175781 34.175781 52.292969 C 34.382812 52.410156 34.402344 52.796875 34.222656 53.15625 Z M 34.222656 53.15625 "/>
<path style=" stroke:none;fill-rule:nonzero;fill:rgb(87.45098%,49.803922%,34.901961%);fill-opacity:1;" d="M 36.984375 50.464844 C 39.679688 51.113281 41.230469 52.296875 41.007812 55.234375 L 40.464844 62.429688 C 40.296875 64.609375 39.761719 65.828125 36.757812 67.925781 C 38.429688 58.804688 37.664062 60.964844 29.773438 62.1875 C 35.15625 59.914062 41.199219 56.34375 36.984375 50.464844 Z M 36.984375 50.464844 "/>
<path style=" stroke:none;fill-rule:nonzero;fill:rgb(87.45098%,49.803922%,34.901961%);fill-opacity:1;" d="M 39.914062 72.078125 C 38.371094 71.605469 36.835938 71.132812 36.757812 69.390625 C 35.148438 74.402344 35.742188 73.625 39.914062 72.078125 Z M 39.914062 72.078125 "/>
<path style=" stroke:none;fill-rule:nonzero;fill:rgb(74.509804%,31.372549%,14.509804%);fill-opacity:1;" d="M 45.664062 70.492188 C 46.21875 69.972656 46.023438 70.082031 46.429688 69.828125 C 47.375 69.234375 48.054688 69.441406 48.03125 70.003906 C 48.007812 70.507812 47.550781 70.480469 46.851562 70.421875 C 46.417969 70.386719 46.3125 70.421875 45.664062 70.492188 Z M 45.664062 70.492188 "/>
<path style=" stroke:none;fill-rule:nonzero;fill:rgb(74.509804%,31.372549%,14.509804%);fill-opacity:1;" d="M 40.816406 71.285156 C 40.195312 70.75 40.242188 70.421875 39.351562 69.757812 C 38.847656 69.382812 38.351562 70.300781 39.070312 70.550781 C 40.308594 70.984375 40.101562 71.066406 40.816406 71.285156 Z M 40.816406 71.285156 "/>
<path style=" stroke:none;fill-rule:nonzero;fill:rgb(87.45098%,49.803922%,34.901961%);fill-opacity:1;" d="M 44.535156 88.195312 C 42.785156 90.023438 40.339844 90.507812 38 90.882812 C 40.871094 92.421875 43.136719 92.746094 44.535156 88.195312 Z M 44.535156 88.195312 "/>
<path style=" stroke:none;fill-rule:nonzero;fill:rgb(94.509804%,18.823529%,18.823529%);fill-opacity:1;" d="M 35.183594 79.648438 C 35.183594 79.648438 37.378906 79.863281 38.449219 79.648438 C 39.597656 79.421875 40.558594 78.425781 41.71875 78.304688 C 42.589844 78.214844 43.4375 78.878906 44.308594 78.792969 C 45.1875 78.710938 45.914062 77.925781 46.789062 77.816406 C 48.632812 77.589844 50.460938 78.429688 52.3125 78.550781 C 53.8125 78.648438 56.820312 78.550781 56.820312 78.550781 C 53.300781 82.855469 52.246094 85.761719 46.113281 86.617188 C 39.980469 87.472656 37.917969 83.390625 35.183594 79.648438 Z M 35.183594 79.648438 "/>
<path style=" stroke:none;fill-rule:nonzero;fill:rgb(60.392157%,23.921569%,23.921569%);fill-opacity:1;" d="M 36.984375 80.257812 C 36.984375 80.257812 38.800781 80.316406 39.691406 80.503906 C 40.808594 80.738281 41.820312 81.519531 42.957031 81.601562 C 43.640625 81.652344 44.300781 81.261719 44.988281 81.238281 C 45.777344 81.207031 46.566406 81.578125 47.351562 81.480469 C 47.824219 81.421875 48.246094 81.117188 48.707031 80.992188 C 50.222656 80.582031 51.828125 80.621094 53.324219 80.136719 C 53.953125 79.933594 55.128906 79.28125 55.128906 79.28125 C 55.128906 79.28125 54.296875 80.148438 53.777344 80.382812 C 52.234375 81.066406 50.421875 80.613281 48.816406 81.113281 C 48.382812 81.25 48.019531 81.601562 47.578125 81.726562 C 46.667969 81.980469 45.703125 81.929688 44.761719 81.96875 C 44.046875 82 43.324219 82.089844 42.621094 81.96875 C 41.527344 81.785156 40.53125 81.1875 39.464844 80.871094 C 38.648438 80.628906 36.984375 80.257812 36.984375 80.257812 Z M 36.984375 80.257812 "/>
<path style=" stroke:none;fill-rule:nonzero;fill:rgb(96.862745%,50.980392%,50.980392%);fill-opacity:1;" d="M 42.734375 84.042969 C 44.113281 83.5 45.722656 84.148438 47.128906 83.679688 C 48.496094 83.222656 50.847656 81.359375 50.847656 81.359375 C 50.847656 81.359375 49.882812 84.066406 48.929688 85.023438 C 48.414062 85.542969 47.695312 85.792969 47.015625 86 C 45.921875 86.324219 44.753906 86.542969 43.632812 86.363281 C 42.75 86.226562 41.15625 85.265625 41.15625 85.265625 C 41.15625 85.265625 42.125 84.285156 42.734375 84.042969 Z M 42.734375 84.042969 "/>
<path style=" stroke:none;fill-rule:nonzero;fill:rgb(96.862745%,50.980392%,50.980392%);fill-opacity:1;" d="M 40.59375 80.503906 C 40.59375 80.503906 42.210938 80.332031 42.957031 80.015625 C 43.492188 79.789062 43.875 79.222656 44.421875 79.039062 C 45.105469 78.808594 46.988281 78.65625 47.691406 78.792969 C 48.617188 78.976562 49.15625 80.136719 49.15625 80.136719 C 49.15625 80.136719 47.746094 80.628906 47.015625 80.75 C 46.199219 80.882812 45.359375 80.789062 44.535156 80.871094 C 43.96875 80.925781 43.414062 81.148438 42.847656 81.113281 C 42.074219 81.066406 40.59375 80.503906 40.59375 80.503906 Z M 40.59375 80.503906 "/>
<path style=" stroke:none;fill-rule:nonzero;fill:rgb(0%,0%,0%);fill-opacity:1;" d="M 44.414062 22.972656 C 35.59375 26.351562 28.035156 29.585938 23.21875 40.070312 C 23.21875 40.070312 23.292969 44.308594 23.238281 46.613281 C 23.019531 55.449219 28.65625 57.625 34.535156 58.894531 C 30.609375 59.988281 30.441406 60.113281 26.882812 58.894531 C 29.824219 61.835938 30.207031 61.824219 33.894531 62.695312 C 30.070312 63.636719 28.433594 62.246094 25.289062 60.105469 C 27.671875 65.019531 27.148438 65.261719 26.566406 70.636719 C 25.683594 63.683594 23.78125 60.964844 19.074219 56.824219 C 15.25 53.453125 15.070312 47.574219 15.25 42.660156 C 15.515625 35.398438 17.996094 27.75 22.421875 22.285156 C 27.953125 15.449219 43.777344 9.332031 44.574219 9.332031 C 45.371094 9.332031 71.828125 12.613281 71.828125 12.613281 L 79.636719 24.527344 L 79.636719 46.460938 C 79.636719 47.152344 81.867188 62.175781 81.867188 62.175781 C 78.84375 62.449219 76.566406 58.667969 74.378906 54.40625 C 72.414062 48.726562 69.230469 44.863281 68.960938 37.132812 C 68.828125 33.46875 66.5625 30.042969 61.148438 29.191406 C 54.90625 28.207031 49.433594 26.257812 44.414062 22.972656 Z M 44.414062 22.972656 "/>
</g>
</svg>
